# xmcd
# 
# Track frame offsets:
#     150
#     5037
#     18957
#     30737
#     42313
#     60367
#     71281
#     91683
#     103555
#     118735
#     168985
#     184141
# 
# Disc length: 2678
# 
# Revision: 1
# Processed by: cddbd v1.5.2PL0 Copyright (c) Steve Scherf et al.
# Submitted via: BonkEnc v1.0.5
# 
DISCID=8e0a740c
DTITLE=野坂昭如 - 武道館の野坂昭如
DYEAR=0
DGENRE=JPop
TTITLE0=Opening
TTITLE1=バイ・バイ・ベイビー
TTITLE2=おんじょろ節
TTITLE3=大懺悔
TTITLE4=花ざかりの森
TTITLE5=大挽歌
TTITLE6=バージン・ブルース
TTITLE7=ヨコスカ･マンボ
TTITLE8=男の花道
TTITLE9=ディートリッヒなんか知らないよ
TTITLE10=できそこないのロック
TTITLE11=黒の舟歌
EXTD=
EXTT0=
EXTT1=
EXTT2=
EXTT3=
EXTT4=
EXTT5=
EXTT6=
EXTT7=
EXTT8=
EXTT9=
EXTT10=
EXTT11=
PLAYORDER=
